{
	"patcher" : 	{
		"fileversion" : 1,
		"rect" : [ 102.0, 73.0, 710.0, 454.0 ],
		"bglocked" : 0,
		"defrect" : [ 102.0, 73.0, 710.0, 454.0 ],
		"openrect" : [ 0.0, 0.0, 0.0, 0.0 ],
		"openinpresentation" : 0,
		"default_fontsize" : 12.0,
		"default_fontface" : 0,
		"default_fontname" : "Arial",
		"gridonopen" : 0,
		"gridsize" : [ 15.0, 15.0 ],
		"gridsnaponopen" : 0,
		"toolbarvisible" : 1,
		"boxanimatetime" : 200,
		"imprint" : 0,
		"enablehscroll" : 1,
		"enablevscroll" : 1,
		"devicewidth" : 0.0,
		"boxes" : [ 			{
				"box" : 				{
					"fontname" : "Arial",
					"fontsize" : 9.160198,
					"hidden" : 1,
					"id" : "obj-22",
					"linecount" : 2,
					"maxclass" : "message",
					"numinlets" : 2,
					"numoutlets" : 1,
					"outlettype" : [ "" ],
					"patching_rect" : [ 88.0, 500.0, 180.0, 26.0 ],
					"text" : ";\rmax launchbrowser http://www.blueyeti.fr/"
				}

			}
, 			{
				"box" : 				{
					"bgcolor" : [ 0.74902, 0.74902, 0.74902, 0.501961 ],
					"bgovercolor" : [ 0.698039, 0.698039, 0.698039, 0.466667 ],
					"fontname" : "Verdana",
					"fontsize" : 9.0,
					"id" : "obj-20",
					"maxclass" : "textbutton",
					"numinlets" : 1,
					"numoutlets" : 3,
					"outlettype" : [ "", "", "int" ],
					"patching_rect" : [ 78.0, 428.0, 179.0, 16.0 ],
					"text" : "Jean-Michel Couturier, Blue Yeti"
				}

			}
, 			{
				"box" : 				{
					"fontname" : "Verdana",
					"fontsize" : 9.0,
					"frgb" : [ 0.0, 0.0, 0.0, 1.0 ],
					"id" : "obj-21",
					"maxclass" : "comment",
					"numinlets" : 1,
					"numoutlets" : 0,
					"patching_rect" : [ 7.0, 427.0, 75.0, 17.0 ],
					"text" : "Jamoma port :"
				}

			}
, 			{
				"box" : 				{
					"bgcolor" : [ 0.74902, 0.74902, 0.74902, 0.501961 ],
					"bgovercolor" : [ 0.698039, 0.698039, 0.698039, 0.466667 ],
					"fontname" : "Verdana",
					"fontsize" : 9.0,
					"id" : "obj-18",
					"maxclass" : "textbutton",
					"numinlets" : 1,
					"numoutlets" : 3,
					"outlettype" : [ "", "", "int" ],
					"patching_rect" : [ 146.0, 393.0, 114.0, 16.0 ],
					"text" : "http://www.box2d.org"
				}

			}
, 			{
				"box" : 				{
					"bgcolor" : [ 0.74902, 0.74902, 0.74902, 0.501961 ],
					"bgovercolor" : [ 0.698039, 0.698039, 0.698039, 0.466667 ],
					"fontname" : "Verdana",
					"fontsize" : 9.0,
					"id" : "obj-19",
					"maxclass" : "textbutton",
					"numinlets" : 1,
					"numoutlets" : 3,
					"outlettype" : [ "", "", "int" ],
					"patching_rect" : [ 78.0, 410.0, 179.0, 16.0 ],
					"text" : "Charles Bascou - Mathieu Chamagne"
				}

			}
, 			{
				"box" : 				{
					"fontname" : "Verdana",
					"fontsize" : 9.0,
					"frgb" : [ 0.0, 0.0, 0.0, 1.0 ],
					"id" : "obj-17",
					"maxclass" : "comment",
					"numinlets" : 1,
					"numoutlets" : 0,
					"patching_rect" : [ 8.0, 409.0, 75.0, 17.0 ],
					"text" : "max/PD port :"
				}

			}
, 			{
				"box" : 				{
					"fontname" : "Arial",
					"fontsize" : 9.160198,
					"hidden" : 1,
					"id" : "obj-46",
					"linecount" : 3,
					"maxclass" : "message",
					"numinlets" : 2,
					"numoutlets" : 1,
					"outlettype" : [ "" ],
					"patching_rect" : [ 78.0, 460.0, 445.0, 36.0 ],
					"text" : ";\rmax launchbrowser mailto:bascou@gmail.com?cc=mathieu.chamagne@gmail.com&subject=[box2D]&body=salut"
				}

			}
, 			{
				"box" : 				{
					"fontname" : "Arial",
					"fontsize" : 9.160198,
					"hidden" : 1,
					"id" : "obj-5",
					"linecount" : 2,
					"maxclass" : "message",
					"numinlets" : 2,
					"numoutlets" : 1,
					"outlettype" : [ "" ],
					"patching_rect" : [ 146.0, 431.0, 178.0, 26.0 ],
					"text" : ";\rmax launchbrowser http://www.box2d.org"
				}

			}
, 			{
				"box" : 				{
					"fontname" : "Verdana",
					"fontsize" : 9.0,
					"frgb" : [ 0.0, 0.0, 0.0, 1.0 ],
					"id" : "obj-8",
					"maxclass" : "comment",
					"numinlets" : 1,
					"numoutlets" : 0,
					"patching_rect" : [ 8.0, 392.0, 142.0, 17.0 ],
					"text" : "original c++ lib by Erin Catto"
				}

			}
, 			{
				"box" : 				{
					"fontname" : "Verdana",
					"fontsize" : 9.0,
					"frgb" : [ 0.0, 0.0, 0.0, 1.0 ],
					"id" : "obj-15",
					"maxclass" : "comment",
					"numinlets" : 1,
					"numoutlets" : 0,
					"patching_rect" : [ 266.0, 52.0, 153.0, 17.0 ],
					"text" : "2D rigid body simulation engine"
				}

			}
, 			{
				"box" : 				{
					"autofit" : 1,
					"data" : [ 1382, "", "IBkSG0fBZn....PCIgDQRA...XE....SHX....v8a.jB....DLmPIQEBHf.B7g.YHB..EzQRDEDU3wY6b9DSaaEGG+qC+IIDbSJZj.YRzUoU7PpTMIxj1kIknxzjFCNWBRSqRcCNu+bcgryTNCsSs6RytmnNsCsZS8xzzbTk1NfLW1nUKi+sRHdPbHj71gz3YCgD6Xdggy6yI+L92KNe3W94meOmvAF0kxJJjcS7s3vM1.btcgK9Q2Dc3yKWihyQq3j67JZkJ..IuBJWPwPw1IMOwNOyQkJ.fyqMJ5JP.cYq6+KhDhhB5d3qn6uwDaM3jj5ElXBcRM2CeHYuG8H..b3lapqOXkBNBlQpE90eSsMmKm55GlX0PyJ0NCD.8d8qqquZ3U2ZWvJR0azogCWtzcbrL1Wx+73GaYoVVQgbvZqQJqnPXW75kTN6tpa2rRsZFuCedYiJnJNu1n..ny.9QuiOdSKUfJ+SpsrFaAIIRAoUwgYxntutEFFtCEBcvyqyIE2XCR16ce01MRp..89ASzdI1bISQdwxKqSnGEOQBCuQihdBEhCPuXMpTcO5nbsEhsfjDYyXyiBRRFNFuQih9+hOmC.nvpqRJsaN3ZzqZHoBzFLbqBRRj+7i+DTVVV29cGZL3drP..njrLTRm9Xh2of.Bd26brxCMRp.1bwVKo12ryBuyD8XxB.XeQQxeuvs0IXOQBiAWbQ0i0HREvlK1meioIUkjCddLvh2Vs1Y8XiXwHxISo11e733BSMIG.vN269jFIU.a7MHjKYJh1LOiJU.f.wiy4IRX01auvBpaaDoBXiEqbpjpayO0jFVpUwe73vAOO..JKKibISQ..7L93nqgFptREvlJ1Rxxj7hoUa22ryZ59nCddN9ImTsc9zh..nm2JDmuYhxUOoBXSEq1R.NEDPWAC1TWKQa4fCjV0TwZKEqVbv2aSGq1xGlYLv.sAh8rBlXqCEjjHU2tyfAMUr1Rw1kFIjWLMJIKSpygehn8BfcEbPSEqcUrbZyv18AIZp9Iah+KNOgiXpXskhE.3BZFpT1DIPwLYLUVa1GjfncVvzNBAifsUrdmIptA3u9m9YFtjPtjoHZuaKuQiZ5grYaEaG77b9iOuZ6BRR342XZrun3IJ2RxxjWrzxjMiEScecFLH5aNyeCF15IgAnR1mVQATYJC8DNB5VXX.TIiNuXZHmJktYByAOOd06dG3TPvzdpkI1L6kmj7Yqep2uA6wEl5RCV22G0RtMBmBBve74aJoBzBE66+8+DIy9F6AJyr7Ui8FMTtEyjgrYrX5FBUsvAOO7EM5INmsFkV1pzRKoZz9t5EeJlICYue3GQ9zh59Xe2CK.mBBvSjvUDZSTWUKmIK+8bi7ZVtOD2JKD2NqoiqYmPFyxYjXurkeyszJ+NoYDaqBa6vsNqgIVJASrTBlXoDLwRIXhkRvDKkfIVJASrTBlXoDLwRIXhkRvDKkfIVJASrTBlXoDVZBmkOnHI4yVGxEOrgG6Rq7GV4kptD5U7gP86yfG2EaIqffkdQ9RwUnxJuRS9t26sQPOtotbsTo.Zt.gzhV047o1ZdM0PCffdbYo9HydJP6m.p7LCLfUO0Px0VukmDb5I1KMfkqeIt0NjiJ1SiEd7VO4oT6YZ3jfMp.JASrTBlXoDLwRIXhkRvDKkfIVJASrTBlXoDLwRIXhkRvDKkfIVJASrTBlXoDLwRIrzjHeqm7z+W+MWoV70uya1RVPQVFKkfK8e8MjBkx0TAKt8NPbqyWYryMxkO05q96YDbk9d2Zl8ysvO+5M0OqGLpvGd0TvumQZe9I36rl+EBbhX0ECiwgD.....IUjSD4pPfIH" ],
					"embed" : 1,
					"id" : "obj-10",
					"maxclass" : "fpic",
					"numinlets" : 1,
					"numoutlets" : 0,
					"patching_rect" : [ 246.5, 0.5, 58.763161, 53.0 ]
				}

			}
, 			{
				"box" : 				{
					"bgcolor" : [ 0.360784, 0.360784, 0.360784, 0.0 ],
					"fontface" : 3,
					"fontname" : "Times New Roman Bold",
					"fontsize" : 43.511509,
					"frgb" : [ 0.258824, 0.258824, 0.258824, 1.0 ],
					"id" : "obj-16",
					"maxclass" : "comment",
					"numinlets" : 1,
					"numoutlets" : 0,
					"patching_rect" : [ 306.0, 9.0, 142.0, 57.0 ],
					"text" : "box2D",
					"textcolor" : [ 0.258824, 0.258824, 0.258824, 1.0 ]
				}

			}
, 			{
				"box" : 				{
					"fontname" : "Arial",
					"fontsize" : 12.0,
					"frgb" : [ 0.0, 0.0, 0.0, 1.0 ],
					"id" : "obj-14",
					"maxclass" : "comment",
					"numinlets" : 1,
					"numoutlets" : 0,
					"patching_rect" : [ 332.0, 208.0, 195.0, 20.0 ],
					"text" : "direct messages to box2D external"
				}

			}
, 			{
				"box" : 				{
					"id" : "obj-13",
					"maxclass" : "toggle",
					"numinlets" : 1,
					"numoutlets" : 1,
					"outlettype" : [ "int" ],
					"patching_rect" : [ 374.0, 127.0, 20.0, 20.0 ]
				}

			}
, 			{
				"box" : 				{
					"fontname" : "Arial",
					"fontsize" : 12.0,
					"id" : "obj-12",
					"maxclass" : "newobj",
					"numinlets" : 2,
					"numoutlets" : 1,
					"outlettype" : [ "" ],
					"patching_rect" : [ 374.0, 155.0, 34.0, 20.0 ],
					"text" : "gate"
				}

			}
, 			{
				"box" : 				{
					"fontname" : "Arial",
					"fontsize" : 12.0,
					"id" : "obj-11",
					"maxclass" : "message",
					"numinlets" : 2,
					"numoutlets" : 1,
					"outlettype" : [ "" ],
					"patching_rect" : [ 374.0, 180.0, 141.0, 18.0 ],
					"text" : "applytorque * 1000 1000"
				}

			}
, 			{
				"box" : 				{
					"fontname" : "Arial",
					"fontsize" : 12.0,
					"frgb" : [ 0.0, 0.0, 0.0, 1.0 ],
					"id" : "obj-9",
					"linecount" : 3,
					"maxclass" : "comment",
					"numinlets" : 1,
					"numoutlets" : 0,
					"patching_rect" : [ 237.0, 152.0, 75.0, 48.0 ],
					"text" : "bang or use internal metronome"
				}

			}
, 			{
				"box" : 				{
					"id" : "obj-6",
					"maxclass" : "toggle",
					"numinlets" : 1,
					"numoutlets" : 1,
					"outlettype" : [ "int" ],
					"patching_rect" : [ 299.0, 102.0, 20.0, 20.0 ]
				}

			}
, 			{
				"box" : 				{
					"fontname" : "Arial",
					"fontsize" : 12.0,
					"id" : "obj-2",
					"maxclass" : "newobj",
					"numinlets" : 2,
					"numoutlets" : 1,
					"outlettype" : [ "bang" ],
					"patching_rect" : [ 299.0, 127.0, 65.0, 20.0 ],
					"text" : "qmetro 10"
				}

			}
, 			{
				"box" : 				{
					"args" : [ "@name", "jmod.by.box2D", "@description", "box2D master module" ],
					"bgmode" : 1,
					"id" : "obj-3",
					"maxclass" : "bpatcher",
					"name" : "jcom.maxhelpui.maxpat",
					"numinlets" : 1,
					"numoutlets" : 0,
					"patching_rect" : [ 0.0, 0.0, 710.0, 70.0 ],
					"prototypename" : "bphelp",
					"varname" : "maxhelpui"
				}

			}
, 			{
				"box" : 				{
					"fontname" : "Verdana",
					"fontsize" : 10.0,
					"id" : "obj-7",
					"maxclass" : "newobj",
					"numinlets" : 0,
					"numoutlets" : 1,
					"outlettype" : [ "bang" ],
					"patcher" : 					{
						"fileversion" : 1,
						"rect" : [ 25.0, 69.0, 640.0, 480.0 ],
						"bglocked" : 0,
						"defrect" : [ 25.0, 69.0, 640.0, 480.0 ],
						"openrect" : [ 0.0, 0.0, 0.0, 0.0 ],
						"openinpresentation" : 0,
						"default_fontsize" : 10.0,
						"default_fontface" : 0,
						"default_fontname" : "Verdana",
						"gridonopen" : 0,
						"gridsize" : [ 5.0, 5.0 ],
						"gridsnaponopen" : 0,
						"toolbarvisible" : 1,
						"boxanimatetime" : 200,
						"imprint" : 0,
						"enablehscroll" : 1,
						"enablevscroll" : 1,
						"devicewidth" : 0.0,
						"boxes" : [ 							{
								"box" : 								{
									"fontname" : "Verdana",
									"fontsize" : 10.0,
									"id" : "obj-14",
									"maxclass" : "newobj",
									"numinlets" : 1,
									"numoutlets" : 1,
									"outlettype" : [ "bang" ],
									"patching_rect" : [ 50.0, 175.0, 25.0, 19.0 ],
									"text" : "t b"
								}

							}
, 							{
								"box" : 								{
									"fontname" : "Verdana",
									"fontsize" : 10.0,
									"id" : "obj-15",
									"maxclass" : "newobj",
									"numinlets" : 1,
									"numoutlets" : 2,
									"outlettype" : [ "", "" ],
									"patching_rect" : [ 50.0, 150.0, 117.0, 19.0 ],
									"text" : "route jmod.by.box2D"
								}

							}
, 							{
								"box" : 								{
									"fontname" : "Verdana",
									"fontsize" : 10.0,
									"id" : "obj-17",
									"maxclass" : "newobj",
									"numinlets" : 1,
									"numoutlets" : 2,
									"outlettype" : [ "", "" ],
									"patching_rect" : [ 50.0, 100.0, 191.0, 19.0 ],
									"text" : "jcom.receive notifications"
								}

							}
, 							{
								"box" : 								{
									"fontname" : "Verdana",
									"fontsize" : 10.0,
									"id" : "obj-18",
									"maxclass" : "newobj",
									"numinlets" : 1,
									"numoutlets" : 2,
									"outlettype" : [ "", "" ],
									"patching_rect" : [ 50.0, 125.0, 130.0, 19.0 ],
									"text" : "route module.initialized"
								}

							}
, 							{
								"box" : 								{
									"fontname" : "Verdana",
									"fontsize" : 10.0,
									"id" : "obj-19",
									"maxclass" : "newobj",
									"numinlets" : 2,
									"numoutlets" : 1,
									"outlettype" : [ "bang" ],
									"patching_rect" : [ 50.0, 200.0, 49.0, 19.0 ],
									"text" : "del 100"
								}

							}
, 							{
								"box" : 								{
									"comment" : "",
									"id" : "obj-3",
									"maxclass" : "outlet",
									"numinlets" : 1,
									"numoutlets" : 0,
									"patching_rect" : [ 50.0, 279.0, 25.0, 25.0 ]
								}

							}
 ],
						"lines" : [ 							{
								"patchline" : 								{
									"destination" : [ "obj-19", 0 ],
									"hidden" : 0,
									"midpoints" : [  ],
									"source" : [ "obj-14", 0 ]
								}

							}
, 							{
								"patchline" : 								{
									"destination" : [ "obj-14", 0 ],
									"hidden" : 0,
									"midpoints" : [  ],
									"source" : [ "obj-15", 0 ]
								}

							}
, 							{
								"patchline" : 								{
									"destination" : [ "obj-18", 0 ],
									"hidden" : 0,
									"midpoints" : [  ],
									"source" : [ "obj-17", 0 ]
								}

							}
, 							{
								"patchline" : 								{
									"destination" : [ "obj-15", 0 ],
									"hidden" : 0,
									"midpoints" : [  ],
									"source" : [ "obj-18", 0 ]
								}

							}
, 							{
								"patchline" : 								{
									"destination" : [ "obj-3", 0 ],
									"hidden" : 0,
									"midpoints" : [  ],
									"source" : [ "obj-19", 0 ]
								}

							}
 ]
					}
,
					"patching_rect" : [ 18.0, 148.0, 61.0, 19.0 ],
					"saved_object_attributes" : 					{
						"default_fontface" : 0,
						"default_fontname" : "Verdana",
						"fontname" : "Verdana",
						"default_fontsize" : 10.0,
						"fontface" : 0,
						"globalpatchername" : "",
						"fontsize" : 10.0
					}
,
					"text" : "p initialize"
				}

			}
, 			{
				"box" : 				{
					"fontname" : "Arial",
					"fontsize" : 12.0,
					"id" : "obj-4",
					"maxclass" : "message",
					"numinlets" : 2,
					"numoutlets" : 1,
					"outlettype" : [ "" ],
					"patching_rect" : [ 18.0, 177.0, 205.0, 18.0 ],
					"text" : "/metro 1, /preview 1, world/borders 1"
				}

			}
, 			{
				"box" : 				{
					"args" : [ "/by.box2D" ],
					"id" : "obj-1",
					"maxclass" : "bpatcher",
					"name" : "jmod.by.box2D.maxpat",
					"numinlets" : 2,
					"numoutlets" : 2,
					"outlettype" : [ "", "" ],
					"patching_rect" : [ 18.0, 204.0, 300.0, 140.0 ],
					"presentation_rect" : [ 0.0, 0.0, 300.0, 140.0 ]
				}

			}
 ],
		"lines" : [ 			{
				"patchline" : 				{
					"destination" : [ "obj-1", 1 ],
					"hidden" : 0,
					"midpoints" : [ 383.5, 200.5, 308.5, 200.5 ],
					"source" : [ "obj-11", 0 ]
				}

			}
, 			{
				"patchline" : 				{
					"destination" : [ "obj-11", 0 ],
					"hidden" : 0,
					"midpoints" : [  ],
					"source" : [ "obj-12", 0 ]
				}

			}
, 			{
				"patchline" : 				{
					"destination" : [ "obj-12", 0 ],
					"hidden" : 0,
					"midpoints" : [  ],
					"source" : [ "obj-13", 0 ]
				}

			}
, 			{
				"patchline" : 				{
					"destination" : [ "obj-5", 0 ],
					"hidden" : 1,
					"midpoints" : [  ],
					"source" : [ "obj-18", 0 ]
				}

			}
, 			{
				"patchline" : 				{
					"destination" : [ "obj-46", 0 ],
					"hidden" : 1,
					"midpoints" : [  ],
					"source" : [ "obj-19", 0 ]
				}

			}
, 			{
				"patchline" : 				{
					"destination" : [ "obj-1", 1 ],
					"hidden" : 0,
					"midpoints" : [  ],
					"source" : [ "obj-2", 0 ]
				}

			}
, 			{
				"patchline" : 				{
					"destination" : [ "obj-12", 1 ],
					"hidden" : 0,
					"midpoints" : [ 308.5, 150.5, 398.5, 150.5 ],
					"source" : [ "obj-2", 0 ]
				}

			}
, 			{
				"patchline" : 				{
					"destination" : [ "obj-22", 0 ],
					"hidden" : 1,
					"midpoints" : [  ],
					"source" : [ "obj-20", 0 ]
				}

			}
, 			{
				"patchline" : 				{
					"destination" : [ "obj-1", 0 ],
					"hidden" : 0,
					"midpoints" : [ 27.5, 196.0, 27.5, 196.0 ],
					"source" : [ "obj-4", 0 ]
				}

			}
, 			{
				"patchline" : 				{
					"destination" : [ "obj-2", 0 ],
					"hidden" : 0,
					"midpoints" : [  ],
					"source" : [ "obj-6", 0 ]
				}

			}
, 			{
				"patchline" : 				{
					"destination" : [ "obj-4", 0 ],
					"hidden" : 0,
					"midpoints" : [ 27.5, 172.5, 27.5, 172.5 ],
					"source" : [ "obj-7", 0 ]
				}

			}
 ]
	}

}
